<svg width="68" height="77" viewBox="0 0 68 77" fill="none" xmlns="http://www.w3.org/2000/svg">
<g clip-path="url(#clip0_138:430)">
<path d="M49.6399 44.3601C45.7526 44.3575 42.0253 42.8119 39.2766 40.0632C36.5279 37.3145 34.9824 33.5872 34.9797 29.7C34.9824 25.8127 36.5279 22.0854 39.2766 19.3367C42.0253 16.588 45.7526 15.0429 49.6399 15.0403C53.5263 15.0456 57.2521 16.5915 60.0002 19.3396C62.7484 22.0877 64.2948 25.8135 64.3 29.7C64.2948 33.5864 62.7484 37.3122 60.0002 40.0603C57.2521 42.8084 53.5263 44.3548 49.6399 44.3601Z" stroke="#FFAB11" stroke-width="7" stroke-miterlimit="10"/>
<path d="M12.13 68.77C18.8292 68.77 24.26 63.3392 24.26 56.64C24.26 49.9408 18.8292 44.51 12.13 44.51C5.43079 44.51 0 49.9408 0 56.64C0 63.3392 5.43079 68.77 12.13 68.77Z" fill="#00A5A5"/>
<path d="M23.34 12.92C26.9078 12.92 29.8 10.0278 29.8 6.46C29.8 2.89224 26.9078 0 23.34 0C19.7722 0 16.88 2.89224 16.88 6.46C16.88 10.0278 19.7722 12.92 23.34 12.92Z" fill="#E61946"/>
<path d="M17.6101 58.26C13.9266 54.5719 11.8577 49.5726 11.8577 44.3601C11.8577 39.1476 13.9266 34.1483 17.6101 30.4602C21.2991 26.7822 26.2959 24.7166 31.5051 24.7166C36.7144 24.7166 41.7111 26.7822 45.4001 30.4602C49.0787 34.1509 51.1443 39.1492 51.1443 44.3601C51.1443 49.571 49.0787 54.5693 45.4001 58.26C41.7111 61.938 36.7144 64.0032 31.5051 64.0032C26.2959 64.0032 21.2991 61.938 17.6101 58.26Z" stroke="white" stroke-width="7" stroke-miterlimit="10"/>
<path d="M45.4 58.26L61.64 74.5" stroke="white" stroke-width="7" stroke-miterlimit="10"/>
</g>
<defs>
<clipPath id="clip0_138:430">
<rect width="67.8" height="76.98" fill="white"/>
</clipPath>
</defs>
</svg>
